<svg width="400" height="300" viewBox="0 0 400 300" xmlns="http://www.w3.org/2000/svg">
  <defs>
    <linearGradient id="bg" x1="0%" y1="0%" x2="100%" y2="100%">
      <stop offset="0%" style="stop-color:#667eea;stop-opacity:1" />
      <stop offset="100%" style="stop-color:#764ba2;stop-opacity:1" />
    </linearGradient>
    <linearGradient id="card" x1="0%" y1="0%" x2="100%" y2="100%">
      <stop offset="0%" style="stop-color:#ffffff;stop-opacity:0.95" />
      <stop offset="100%" style="stop-color:#f8fafc;stop-opacity:0.9" />
    </linearGradient>
    <linearGradient id="accent" x1="0%" y1="0%" x2="100%" y2="100%">
      <stop offset="0%" style="stop-color:#10b981;stop-opacity:1" />
      <stop offset="100%" style="stop-color:#059669;stop-opacity:1" />
    </linearGradient>
  </defs>
  
  <!-- Background -->
  <rect width="400" height="300" fill="url(#bg)" rx="16"/>
  
  <!-- Main content card -->
  <rect x="30" y="40" width="340" height="220" fill="url(#card)" rx="12" stroke="#e2e8f0" stroke-width="1"/>
  
  <!-- Header section -->
  <rect x="50" y="60" width="300" height="40" fill="url(#accent)" rx="8" opacity="0.1"/>
  <text x="70" y="82" font-family="Arial, sans-serif" font-size="16" font-weight="bold" fill="#059669">Dr. Oussama Aouidane, PharmD</text>
  
  <!-- Profile section -->
  <circle cx="90" cy="140" r="25" fill="url(#accent)" opacity="0.2"/>
  <circle cx="90" cy="140" r="20" fill="url(#accent)"/>
  <text x="85" y="145" font-family="Arial, sans-serif" font-size="12" font-weight="bold" fill="white">OA</text>
  
  <!-- Content sections -->
  <rect x="130" y="125" width="200" height="8" fill="#cbd5e1" rx="4"/>
  <rect x="130" y="140" width="160" height="6" fill="#e2e8f0" rx="3"/>
  <rect x="130" y="155" width="180" height="6" fill="#e2e8f0" rx="3"/>
  
  <!-- Skills/badges -->
  <rect x="50" y="180" width="80" height="20" fill="url(#accent)" rx="10" opacity="0.8"/>
  <text x="70" y="192" font-family="Arial, sans-serif" font-size="10" font-weight="bold" fill="white" text-anchor="middle">Clinical Research</text>
  
  <rect x="140" y="180" width="70" height="20" fill="#3b82f6" rx="10" opacity="0.8"/>
  <text x="175" y="192" font-family="Arial, sans-serif" font-size="10" font-weight="bold" fill="white" text-anchor="middle">Drug Safety</text>
  
  <rect x="220" y="180" width="80" height="20" fill="#8b5cf6" rx="10" opacity="0.8"/>
  <text x="260" y="192" font-family="Arial, sans-serif" font-size="10" font-weight="bold" fill="white" text-anchor="middle">Regulatory Affairs</text>
  
  <!-- Bottom navigation dots -->
  <circle cx="170" cy="230" r="4" fill="url(#accent)"/>
  <circle cx="190" cy="230" r="3" fill="#cbd5e1"/>
  <circle cx="210" cy="230" r="3" fill="#cbd5e1"/>
  <circle cx="230" cy="230" r="3" fill="#cbd5e1"/>
  
  <!-- Decorative elements -->
  <path d="M320 80 L340 70 L360 80 L340 90 Z" fill="url(#accent)" opacity="0.3"/>
  <circle cx="350" cy="120" r="8" fill="#f59e0b" opacity="0.4"/>
  <rect x="310" y="140" width="12" height="12" fill="#ef4444" rx="2" opacity="0.4"/>
  
  <!-- Pharmacy symbol -->
  <g transform="translate(320, 180)">
    <circle cx="15" cy="15" r="15" fill="none" stroke="url(#accent)" stroke-width="2"/>
    <path d="M8 15 L22 15 M15 8 L15 22" stroke="url(#accent)" stroke-width="3" stroke-linecap="round"/>
  </g>
</svg>